# xmcd CD database file
# Generated: ven mar 19 16:47:12 2004 by KSCD
# 
# Track frame offsets:
#       150
#       17582
#       36262
#       54797
#       58147
#       77110
#       96517
#       115830
#       137742
#       140442
#       159265
#       178832
#       197395
#       209507
#       212255
#       227785
#       249580
#       269035
#
# Disc length: 3815 seconds
#
# Revision: 2
# Processed by: cddbd v1.5PL3 Copyright (c) Steve Scherf et al.
# Submitted via: Kscd 1.3.3
#
DISCID=000ee512
DTITLE=? - liason dangeruese
DYEAR=1900
DGENRE=
TTITLE0=dis
TTITLE1=
TTITLE2=
TTITLE3=
TTITLE4=
TTITLE5=
TTITLE6=
TTITLE7=
TTITLE8=
TTITLE9=
TTITLE10=
TTITLE11=
TTITLE12=
TTITLE13=
TTITLE14=
TTITLE15=
TTITLE16=
TTITLE17=
EXTD=
EXTT0=
EXTT1=
EXTT2=
EXTT3=
EXTT4=
EXTT5=
EXTT6=
EXTT7=
EXTT8=
EXTT9=
EXTT10=
EXTT11=
EXTT12=
EXTT13=
EXTT14=
EXTT15=
EXTT16=
EXTT17=
PLAYORDER=
